<svg id="password" xmlns="http://www.w3.org/2000/svg" width="20" height="20" viewBox="0 0 20 20">
  <g id="lock">
    <path id="Vector" d="M10.625,7.917A.63.63,0,0,1,10,7.292V5.625C10,3,9.258,1.25,5.625,1.25S1.25,3,1.25,5.625V7.292a.63.63,0,0,1-.625.625A.63.63,0,0,1,0,7.292V5.625C0,3.208.583,0,5.625,0S11.25,3.208,11.25,5.625V7.292A.63.63,0,0,1,10.625,7.917Z" transform="translate(4.375 1.042)"/>
    <path id="Vector-2" data-name="Vector" d="M13.125,11.25H4.792C1.117,11.25,0,10.133,0,6.458V4.792C0,1.117,1.117,0,4.792,0h8.333c3.675,0,4.792,1.117,4.792,4.792V6.458C17.917,10.133,16.8,11.25,13.125,11.25Zm-8.333-10c-2.983,0-3.542.567-3.542,3.542V6.458C1.25,9.433,1.808,10,4.792,10h8.333c2.983,0,3.542-.567,3.542-3.542V4.792c0-2.975-.558-3.542-3.542-3.542Z" transform="translate(1.042 7.708)"/>
    <path id="Vector-3" data-name="Vector" d="M.833,1.666A.83.83,0,0,1,.517,1.6a.86.86,0,0,1-.275-.175A.861.861,0,0,1,0,.832.83.83,0,0,1,.067.516.86.86,0,0,1,.242.241.86.86,0,0,1,.517.066a.835.835,0,0,1,.908.175A.962.962,0,0,1,1.6.516a.83.83,0,0,1,.067.317.876.876,0,0,1-.242.592A.876.876,0,0,1,.833,1.666Z" transform="translate(5.833 12.501)"/>
    <path id="Vector-4" data-name="Vector" d="M.833,1.667a.876.876,0,0,1-.592-.242A.861.861,0,0,1,0,.834.7.7,0,0,1,.067.517.962.962,0,0,1,.242.242.832.832,0,0,1,.992.017a.5.5,0,0,1,.158.05A.631.631,0,0,1,1.3.142a1.313,1.313,0,0,1,.125.1A.962.962,0,0,1,1.6.517a.83.83,0,0,1,.067.317.861.861,0,0,1-.242.592l-.125.1a.631.631,0,0,1-.15.075.5.5,0,0,1-.158.05A1.021,1.021,0,0,1,.833,1.667Z" transform="translate(9.167 12.499)"/>
    <path id="Vector-5" data-name="Vector" d="M.833,1.667a.861.861,0,0,1-.592-.242.962.962,0,0,1-.175-.275A.83.83,0,0,1,0,.834.876.876,0,0,1,.242.242l.125-.1A.631.631,0,0,1,.517.067a.53.53,0,0,1,.15-.05.848.848,0,0,1,.758.225.861.861,0,0,1,.242.592.83.83,0,0,1-.067.317.86.86,0,0,1-.175.275A.876.876,0,0,1,.833,1.667Z" transform="translate(12.5 12.499)"/>
    <path id="Vector-6" data-name="Vector" d="M0,0H20V20H0Z" fill="none" opacity="0"/>
  </g>
</svg>
