<svg xmlns="http://www.w3.org/2000/svg" width="17.828" height="17.828" viewBox="0 0 17.828 17.828">
  <g id="phone" transform="translate(0 0)">
    <g id="call-calling" transform="translate(0 0)">
      <path id="Vector" d="M3.907,15.971a6.8,6.8,0,0,0,2.637-.587,13.947,13.947,0,0,0,2.667-1.53,23.188,23.188,0,0,0,2.5-2.132,22.193,22.193,0,0,0,2.132-2.5,13.862,13.862,0,0,0,1.515-2.644,6.878,6.878,0,0,0,.579-2.652,4.476,4.476,0,0,0-.3-1.642,3.967,3.967,0,0,0-1-1.441A2.7,2.7,0,0,0,12.717,0a2.009,2.009,0,0,0-.839.186,1.7,1.7,0,0,0-.713.6L9.441,3.216a2.878,2.878,0,0,0-.357.631,1.669,1.669,0,0,0-.149.661,1.576,1.576,0,0,0,.238.817,2.971,2.971,0,0,0,.5.631l.505.527a.362.362,0,0,1-.022.052,5.712,5.712,0,0,1-.609.825c-.364.416-.706.795-1.047,1.144-.438.431-.8.773-1.144,1.055a4.838,4.838,0,0,1-.862.617l.015.037-.542-.535A2.774,2.774,0,0,0,5.3,9.166a1.568,1.568,0,0,0-1.449-.082,3.382,3.382,0,0,0-.624.349L.758,11.187a1.6,1.6,0,0,0-.594.706,2.15,2.15,0,0,0-.163.8,2.477,2.477,0,0,0,.238,1.047,3.46,3.46,0,0,0,.594.891,3.81,3.81,0,0,0,1.419,1.018A4.386,4.386,0,0,0,3.907,15.971Zm8.81-14.856a1.628,1.628,0,0,1,1.151.535A2.85,2.85,0,0,1,14.6,2.7a3.25,3.25,0,0,1,.23,1.233,5.727,5.727,0,0,1-.49,2.214,12.4,12.4,0,0,1-1.4,2.422,20.551,20.551,0,0,1-2.013,2.362,20.915,20.915,0,0,1-2.37,2.02,12.07,12.07,0,0,1-2.444,1.4,4.431,4.431,0,0,1-3.439.26,2.743,2.743,0,0,1-1.018-.735,2.409,2.409,0,0,1-.416-.624,1.316,1.316,0,0,1-.134-.572.887.887,0,0,1,.082-.371.562.562,0,0,1,.208-.223l2.466-1.753a2.13,2.13,0,0,1,.409-.23.391.391,0,0,1,.483.022,1.693,1.693,0,0,1,.431.334l.565.557a1.059,1.059,0,0,0,1.077.223l.2-.089a6.332,6.332,0,0,0,1.055-.75c.357-.3.743-.661,1.211-1.122.364-.371.728-.765,1.107-1.2a6.338,6.338,0,0,0,.758-1.047l.089-.223a1.387,1.387,0,0,0,.059-.371.953.953,0,0,0-.282-.691l-.557-.579a2.151,2.151,0,0,1-.334-.416.476.476,0,0,1-.082-.253.69.69,0,0,1,.059-.238,2.131,2.131,0,0,1,.238-.394l1.723-2.436a.685.685,0,0,1,.275-.23A.93.93,0,0,1,12.717,1.114Zm-6.21,9.107.119.505-.2-.52A.092.092,0,0,1,6.507,10.221Z" transform="translate(0.958 0.929)"/>
      <path id="Vector-2" data-name="Vector" d="M.557,3.714a.561.561,0,0,0,.557-.557,2.478,2.478,0,0,1,.713-1.3,2.008,2.008,0,0,1,1.33-.743A.561.561,0,0,0,3.714.557.561.561,0,0,0,3.157,0,3.038,3.038,0,0,0,1.018,1.092,3.436,3.436,0,0,0,0,3.157.561.561,0,0,0,.557,3.714Z" transform="translate(3.528 3.528)"/>
      <path id="Vector-3" data-name="Vector" d="M.557,6.314a.561.561,0,0,0,.557-.557A4.644,4.644,0,0,1,5.757,1.114.561.561,0,0,0,6.314.557.561.561,0,0,0,5.757,0,5.767,5.767,0,0,0,0,5.757.561.561,0,0,0,.557,6.314Z" transform="translate(0.929 0.929)"/>
      <path id="Vector-4" data-name="Vector" d="M17.828,0H0V17.828H17.828Z" fill="none" opacity="0"/>
    </g>
  </g>
</svg>
