<svg xmlns="http://www.w3.org/2000/svg" width="24" height="24" viewBox="0 0 24 24">
  <g id="user" transform="translate(-492 -252)">
    <g id="profile-circle">
      <path id="Vector" d="M4.14,8.05H3.97a3.99,3.99,0,1,1,.2,0ZM4.02,1.49a2.531,2.531,0,0,0-.1,5.06.84.84,0,0,1,.23,0,2.532,2.532,0,0,0-.13-5.06Z" transform="translate(499.98 257.48)"/>
      <path id="Vector-2" data-name="Vector" d="M7.493,8.055a10.71,10.71,0,0,1-7.25-2.82A.755.755,0,0,1,0,4.6a4.408,4.408,0,0,1,2.1-3.12,10.524,10.524,0,0,1,10.78,0,4.428,4.428,0,0,1,2.1,3.12.716.716,0,0,1-.24.63A10.71,10.71,0,0,1,7.493,8.055Zm-5.92-3.65a9.208,9.208,0,0,0,5.92,2.15,9.208,9.208,0,0,0,5.92-2.15,3.251,3.251,0,0,0-1.37-1.68,9.049,9.049,0,0,0-9.11,0A3.227,3.227,0,0,0,1.573,4.405Z" transform="translate(496.507 266.695)"/>
      <path id="Vector-3" data-name="Vector" d="M0,0H24V24H0Z" transform="translate(492 252)" fill="none" opacity="0"/>
      <path id="Vector-4" data-name="Vector" d="M10.75,21.5A10.75,10.75,0,1,1,21.5,10.75,10.759,10.759,0,0,1,10.75,21.5Zm0-20A9.25,9.25,0,1,0,20,10.75,9.261,9.261,0,0,0,10.75,1.5Z" transform="translate(493.25 253.25)"/>
    </g>
  </g>
</svg>
