<svg xmlns="http://www.w3.org/2000/svg" width="30" height="30" viewBox="0 0 30 30">
  <path id="Logout" d="M6.521,30A6.6,6.6,0,0,1,0,23.34V6.674A6.612,6.612,0,0,1,6.537,0H13.7a6.594,6.594,0,0,1,6.508,6.66v7.186H11.4a1.155,1.155,0,0,0,0,2.31h8.813v7.17A6.612,6.612,0,0,1,13.675,30Zm17.358-9.824a1.192,1.192,0,0,1,0-1.635l2.31-2.385H20.212v-2.31h5.977l-2.31-2.385a1.192,1.192,0,0,1,0-1.635,1.074,1.074,0,0,1,1.573-.015l4.216,4.365A1.172,1.172,0,0,1,30,15a1.133,1.133,0,0,1-.331.81l-4.216,4.366a1.071,1.071,0,0,1-1.573,0Z"/>
</svg>
