<?xml version="1.0" ?><svg viewBox="0 0 512 512" xmlns="http://www.w3.org/2000/svg"><g id="Product_searching"><path d="M379.8292,402.1675,367.8917,403.39l3.3838,33.03a18.4777,18.4777,0,0,1-18.3819,20.3618h-5.028l-36.8973-34.56a45.8513,45.8513,0,0,0-31.4545-12.4307H128.755A45.8514,45.8514,0,0,0,97.3,422.2212l-36.8977,34.56H55.1456A18.4784,18.4784,0,0,1,36.7633,436.42L63.7725,172.7886a18.4288,18.4288,0,0,1,18.3819-16.5952h59.228V182.78a21.5007,21.5007,0,1,0,12,0V156.1934H254.6568V182.78a21.5007,21.5007,0,1,0,12,0V156.1934h59.2276a18.44,18.44,0,0,1,18.3867,16.6352l1.7178,15.7344,11.9287-1.3027-1.7134-15.6944a30.3972,30.3972,0,0,0-30.32-27.3725H266.6568V125.46a62.6372,62.6372,0,1,0-125.2744,0v18.7334H82.1544A30.3972,30.3972,0,0,0,51.835,171.5659L24.8258,435.1968a30.4779,30.4779,0,0,0,30.32,33.5849h297.748a30.4778,30.4778,0,0,0,30.3194-33.5844ZM156.8829,203.4121a9.5008,9.5008,0,1,1-9.5005-9.5005A9.5114,9.5114,0,0,1,156.8829,203.4121Zm113.2744,0a9.5008,9.5008,0,1,1-9.5005-9.5005A9.5114,9.5114,0,0,1,270.1573,203.4121ZM153.3824,125.46a50.6372,50.6372,0,0,1,101.2744,0v18.7334H153.3824Z"/><path d="M479.76,403.3828l-49.9552-49.9557a86.0706,86.0706,0,1,0-11.4607,10.7814l50.0593,50.06Zm-164.68-56.7517a71.0435,71.0435,0,1,1,50.2353,20.8081A70.5777,70.5777,0,0,1,315.0794,346.6311Z"/><path d="M406.2827,285.1481c-13.6055-16.8009-27.9853-25.19-42.7549-25.0075-8.3357.1176-24.7451,3.4861-40.9826,24.7321a17.0448,17.0448,0,0,0,.343,21.1349c13.4414,16.5988,27.6438,25.011,42.2219,25.011.1775,0,.3547-.0015.5325-.0037,8.3359-.1174,24.7448-3.4861,40.9836-24.7329A17.0453,17.0453,0,0,0,406.2827,285.1481ZM364.5854,311.89a16.7873,16.7873,0,1,1,16.7872-16.7871A16.7871,16.7871,0,0,1,364.5854,311.89Z"/></g></svg>