<svg xmlns="http://www.w3.org/2000/svg" width="823.076" height="111.452" viewBox="0 0 823.076 111.452"> <path style="transform-origin: center; transform-box: fill-box; animation: wave 7s linear infinite alternate;" id="brand-pattern" d="M66.9-31.886c0,7.45-4.917,11.324-13.41,11.324H34.717V-43.657H53.193C61.686-43.657,66.9-39.336,66.9-31.886ZM64.368-73.159c0,7.152-4.619,10.877-12.963,10.877H34.717v-21.9H51.405C59.749-84.185,64.368-80.311,64.368-73.159Zm28.31,44.7A25.363,25.363,0,0,0,72.563-53.64c10.132-2.98,17.731-11.175,17.731-23.84,0-16.539-12.665-27.118-33.972-27.118H9.238V0H57.961C80.013,0,92.678-11.175,92.678-28.459Zm40.23-10.132c0-14.3,7-18.476,19.072-18.476h7V-84.036c-11.175,0-20.264,5.96-26.075,14.751V-83.142H107.429V0h25.479Zm33.227-3.129c0,26.224,16.241,42.912,36.505,42.912,12.367,0,21.158-5.662,25.777-12.963V0H253.9V-83.142H228.417v11.771c-4.47-7.3-13.261-12.963-25.628-12.963C182.376-84.334,166.135-67.944,166.135-41.72Zm62.282.149c0,13.261-8.493,20.562-18.178,20.562-9.536,0-18.178-7.45-18.178-20.711s8.642-20.413,18.178-20.413C219.924-62.133,228.417-54.832,228.417-41.571ZM329.737,0h25.33V-48.574c0-22.35-12.814-35.462-32.035-35.462-11.175,0-20.115,4.917-25.181,11.92V-83.142H272.372V0h25.479V-45.147c0-11.324,6.258-17.582,15.943-17.582s15.943,6.258,15.943,17.582Zm37.995-41.72c0,26.224,16.241,42.912,36.654,42.912,12.218,0,21.009-5.513,25.628-13.112V0h25.479V-110.26H430.014v38.591c-5.066-7.6-14.6-12.665-25.628-12.665C383.973-84.334,367.732-67.944,367.732-41.72Zm62.282.149c0,13.261-8.493,20.562-18.178,20.562-9.536,0-18.178-7.45-18.178-20.711s8.642-20.413,18.178-20.413C421.521-62.133,430.014-54.832,430.014-41.571ZM544.744-104.6H505.557V0h39.187c33.376,0,54.832-21.307,54.832-52.3C599.576-83.44,578.12-104.6,544.744-104.6ZM531.036-22.052V-82.844h12.069c19.221,0,30.545,11.324,30.545,30.545s-11.324,30.247-30.545,30.247Zm119.5-41.869c8.493,0,15.645,5.215,15.645,14.3H634.293C635.783-58.855,642.19-63.921,650.534-63.921Zm39.783,36.356H663.2c-2.086,4.47-6.109,8.046-13.261,8.046-8.2,0-14.9-5.066-15.794-15.943h57.663a64.378,64.378,0,0,0,.447-7.45c0-25.33-17.135-41.422-41.422-41.422-24.734,0-42.018,16.39-42.018,42.763S626.4,1.192,650.832,1.192C671.543,1.192,686.294-11.324,690.317-27.565ZM700.6-41.72C700.6-15.5,716.839,1.192,737.1,1.192c12.367,0,21.158-5.662,25.777-12.963V0h25.479V-83.142H762.88v11.771c-4.47-7.3-13.261-12.963-25.628-12.963C716.839-84.334,700.6-67.944,700.6-41.72Zm62.282.149c0,13.261-8.493,20.562-18.178,20.562-9.536,0-18.178-7.45-18.178-20.711s8.642-20.413,18.178-20.413C754.387-62.133,762.88-54.832,762.88-41.571ZM806.835,0h25.479V-110.26H806.835Z" transform="translate(-9.238 110.26)" fill="#fff"/> <style> @keyframes wave { 0% { clip-path: polygon(0 0, 0 0, 0 100%, 0% 100%); } 30% { clip-path: polygon(0 0, 54% 0, 54% 100%, 0 100%); } 60% { clip-path: polygon(0 0, 100% 0, 100% 100%, 0 100%); } 80% { clip-path: polygon(0 0, 100% 0, 100% 100%, 0 100%); } 100% { clip-path: polygon(0 0, 100% 0, 100% 100%, 0 100%); } } </style></svg>